<svg xmlns="http://www.w3.org/2000/svg" viewBox="0 0 24 16"><g fill="#FFF"><path d="M5.499 11.081L12 15.78l6.501-4.699V.22H5.499V11.081zM16.4 13.429c0-.072-.06-.132-.132-.132H16.08v.445h.084v-.182h.06l.084.182H16.4l-.088-.188C16.363 13.535 16.4 13.486 16.4 13.429zM16.269 13.478h-.104V13.38h.104c.026 0 .048.022.048.049C16.316 13.456 16.295 13.478 16.269 13.478z"/><path d="M16.24,13.13c-0.215,0-0.389,0.175-0.389,0.39c0,0.214,0.174,0.389,0.389,0.389s0.389-0.175,0.389-0.389 C16.629,13.305,16.455,13.13,16.24,13.13z M16.24,13.824c-0.169,0-0.306-0.137-0.306-0.305c0-0.169,0.137-0.306,0.306-0.306 s0.306,0.137,0.306,0.306C16.546,13.688,16.409,13.824,16.24,13.824z"/></g><g fill="#ACAEA9"><path d="M5.928 10.862L12 15.25l6.071-4.388V8.189H5.928V10.862zM5.928 7.814h12.144V.648H5.928V7.814z"/></g><g fill="#111"><path d="M6.311 10.667L12 14.778l5.688-4.111V8.855H6.311V10.667zM6.311 7.25h11.378V1.031H6.311V7.25z"/></g><g fill="#ACAEA9"><path d="M7.705 5.491v-1.35c0-1.566.364-2.126.364-2.126H6.652c0 0 .364.56.364 2.126 0 1.565-.364 2.125-.364 2.125h4.628c0 0 .386-.525.386-1.325 0 0-.527.55-1.768.55H7.705zM12.072 2.016c0 0 .365.56.365 2.126 0 1.565-.365 2.125-.365 2.125h1.053V4.683h3.171v1.584h1.052c0 0-.365-.56-.365-2.125 0-1.566.365-2.126.365-2.126H12.072z"/></g><g fill="#FFF"><path d="M12.23 2.113c.111.261.306.878.306 2.028 0 1.149-.194 1.767-.306 2.026h.796V4.585h3.368v1.583c.134 0 .592 0 .795 0-.111-.26-.305-.877-.305-2.026 0-1.15.193-1.768.305-2.028C16.901 2.113 12.52 2.113 12.23 2.113zM7.606 5.59V4.142c0-1.15.193-1.768.305-2.028H6.811c.111.261.305.878.305 2.028 0 1.149-.193 1.767-.305 2.026h4.417c.072-.114.28-.488.328-1.017C11.304 5.324 10.777 5.59 9.898 5.59H7.606z"/></g><path fill="#ACAEA9" d="M13.026,4.006h3.368V2.692h-3.368V4.006z"/><path d="M13.125 2.79H16.296V3.907H13.125z"/><path fill="#FFF" d="M13.71,12.807l0.423-2.419l-0.089-0.038c0,0-0.343,0.46-0.408,0.546c-0.141-0.173-0.41-0.388-0.774-0.508 c0.028-0.07,0.161-0.393,0.161-0.393s-0.203,0.082-0.291,0.117c0.009-0.017,0.019-0.035,0.019-0.035s-0.312,0.017-0.36,0.019 c-0.025-0.043-0.195-0.345-0.219-0.385c0.021-0.035,0.085-0.148,0.092-0.16c0.011-0.009,0.091-0.077,0.091-0.077l-0.104-0.197 l-0.22,0.016c0,0-0.003,0.103-0.004,0.122L12,9.455l-0.025-0.041c-0.001-0.02-0.005-0.122-0.005-0.122l-0.22-0.016l-0.104,0.197 c0,0,0.08,0.068,0.09,0.077c0.008,0.012,0.072,0.125,0.093,0.16c-0.023,0.04-0.193,0.342-0.219,0.385 c-0.049-0.002-0.36-0.019-0.36-0.019s0.009,0.019,0.019,0.035c-0.088-0.035-0.291-0.117-0.291-0.117s0.132,0.322,0.161,0.393 c-0.364,0.12-0.634,0.335-0.775,0.508c-0.064-0.086-0.408-0.546-0.408-0.546l-0.087,0.038l0.421,2.419 c0,0,0.601,0.154,1.711,0.154C13.109,12.961,13.71,12.807,13.71,12.807z"/><path fill="#111" d="M11.649,12.85c0,0-0.55-0.051-0.876-0.177c0.223,0.032,0.584,0.076,0.914,0.076c0,0-0.446-0.046-0.742-0.157 c0.224,0.029,0.542,0.063,0.835,0.063c0,0-0.436-0.045-0.731-0.154c0.265-0.057,0.591-0.102,0.951-0.102 c0.359,0,0.686,0.045,0.95,0.102c-0.296,0.109-0.73,0.154-0.73,0.154c0.292,0,0.61-0.034,0.834-0.063 c-0.296,0.111-0.742,0.157-0.742,0.157c0.33,0,0.691-0.044,0.914-0.076C12.9,12.799,12.35,12.85,12.35,12.85 c0.81-0.021,1.289-0.142,1.289-0.142l0.371-2.158l-0.376,0.503c-0.165-0.27-0.486-0.486-0.897-0.606l0.113-0.276l-0.581,0.261 v-0.144L12,9.825l-0.27,0.462v0.144l-0.582-0.261l0.114,0.276c-0.411,0.12-0.731,0.337-0.897,0.606L9.989,10.55l0.372,2.158 C10.361,12.708,10.841,12.828,11.649,12.85z"/><g fill="#ACAEA9"><path d="M11.73 10.483l-.49-.221.49 1.195V10.483zM12.269 10.483v.975l.491-1.195L12.269 10.483zM12.219 10.463L12 10.177l-.22.286L12 10.724 12.219 10.463z"/><path d="M13.719,11.953c-0.097-0.016-0.171-0.104-0.171-0.211c0-0.117,0.091-0.213,0.201-0.213 c0.015,0,0.028,0.001,0.042,0.005l0.137-0.795l-0.595,0.795c0.013,0.381-0.08,0.534-0.08,0.534s-0.199-0.08-0.422-0.125 l-0.077-0.385c-0.034,0-0.064-0.011-0.091-0.028c-0.001,0-0.002-0.001-0.003-0.001l-0.196,0.355c0,0-0.246-0.023-0.37-0.023 l0.111-0.342L12,10.99l-0.205,0.529l0.11,0.342c-0.124,0-0.37,0.023-0.37,0.023l-0.181-0.329 c-0.012,0.002-0.023,0.003-0.035,0.003c-0.025,0-0.049-0.006-0.07-0.016l-0.081,0.4c-0.222,0.045-0.422,0.125-0.422,0.125 s-0.092-0.153-0.08-0.534l-0.595-0.795l0.137,0.795c0.014-0.004,0.027-0.005,0.042-0.005c0.111,0,0.201,0.096,0.201,0.213 c0,0.106-0.074,0.195-0.171,0.211l0.118,0.688c0.188-0.072,0.817-0.29,1.602-0.29c0.783,0,1.414,0.218,1.601,0.29L13.719,11.953z"/></g><g fill="#111"><path d="M12.092 10.454c0-.051-.042-.093-.092-.093-.052 0-.092.042-.092.093s.04.092.092.092C12.05 10.546 12.092 10.505 12.092 10.454zM12.496 10.549c-.017-.021-.043-.036-.072-.036-.051 0-.092.041-.092.093 0 .042.029.079.069.089.015.009.031.015.049.015.048 0 .087-.038.087-.086C12.537 10.592 12.521 10.564 12.496 10.549zM11.608 10.549c-.017-.021-.043-.036-.073-.036-.051 0-.092.041-.092.093 0 .042.03.079.07.089.014.009.03.015.049.015.048 0 .087-.038.087-.086C11.649 10.592 11.633 10.564 11.608 10.549z"/></g><g fill="#FFF"><path d="M10.433 11.143l.103.136c.249-.487.748-.542.748-.542-.428.159-.606.409-.664.655l.096.127c0 0-.012.345.057.489.021-.009.046-.018.074-.026-.223-.917.5-1.086.5-1.086-.511.264-.463.733-.359 1.043.043-.012.09-.023.141-.035l.077-.381c-.066-.025-.113-.089-.113-.164 0-.098.079-.177.177-.177.057 0 .107.027.14.068.047.03.079.083.079.143 0 .062-.035.117-.087.146l.162.296c.086-.009.174-.015.264-.018l-.523-1.275C10.896 10.66 10.578 10.879 10.433 11.143zM12.615 11.51c-.052-.031-.087-.087-.087-.151 0-.098.079-.177.177-.177.058 0 .107.027.14.068.048.03.079.083.079.143 0 .076-.052.141-.122.16l.071.351c.051.012.097.023.14.035.104-.31.151-.779-.359-1.043 0 0 .723.169.501 1.086.027.009.053.018.074.026.067-.145.056-.489.056-.489l.097-.127c-.059-.246-.236-.496-.665-.655 0 0 .499.055.748.542l.103-.136c-.145-.264-.463-.482-.869-.602l-.523 1.275c.09.003.178.009.264.018L12.615 11.51z"/><path d="M11.268 11.207c-.083 0-.151.068-.151.151s.068.151.151.151.15-.068.15-.151S11.351 11.207 11.268 11.207zM12.856 11.358c0-.083-.068-.151-.151-.151s-.15.068-.15.151.067.151.15.151S12.856 11.441 12.856 11.358zM10.312 11.742c0-.036-.027-.065-.062-.065-.006 0-.012 0-.017.002l.021.129C10.287 11.805 10.312 11.777 10.312 11.742z"/><path d="M10.25 11.553c-.013 0-.025.002-.038.005l.004.024c.012-.004.022-.005.034-.005.085 0 .152.074.152.165 0 .083-.057.151-.131.163l.005.024c.085-.014.151-.092.151-.188C10.428 11.638 10.348 11.553 10.25 11.553zM13.688 11.742c0 .035.024.062.057.065l.022-.129c-.006-.002-.011-.002-.018-.002C13.715 11.677 13.688 11.706 13.688 11.742z"/><path d="M13.724 11.93l.004-.024c-.074-.012-.131-.08-.131-.163 0-.091.068-.165.152-.165.012 0 .022.001.034.005l.005-.024c-.014-.003-.026-.005-.039-.005-.098 0-.177.085-.177.189C13.572 11.838 13.638 11.916 13.724 11.93zM12.078 10.454c0-.043-.035-.079-.078-.079-.044 0-.079.036-.079.079 0 .044.035.078.079.078C12.043 10.532 12.078 10.498 12.078 10.454zM12.424 10.684c.044 0 .078-.035.078-.078 0-.044-.034-.079-.078-.079-.043 0-.079.035-.079.079C12.345 10.648 12.381 10.684 12.424 10.684zM11.535 10.684c.044 0 .079-.035.079-.078 0-.044-.035-.079-.079-.079-.043 0-.078.035-.078.079C11.457 10.648 11.492 10.684 11.535 10.684z"/></g><g fill="#111"><circle cx="11.268" cy="11.358" r=".134"/><circle cx="12.705" cy="11.358" r=".134"/><path d="M11.995,11.581L11.995,11.581c0.01,0.005,0.021,0.008,0.034,0.008c0.044,0,0.08-0.036,0.08-0.08 c0-0.031-0.018-0.059-0.045-0.071c0.012,0.015,0.02,0.033,0.02,0.054C12.084,11.541,12.044,11.581,11.995,11.581z"/><circle cx="11.995" cy="11.492" r=".072"/><circle cx="12" cy="10.454" r=".07"/><circle cx="12.424" cy="10.605" r=".07"/><circle cx="11.535" cy="10.605" r=".07"/><path d="M11.582 12.194c-.001 0-.001 0-.002 0 .011.005.023.009.036.009.044 0 .08-.036.08-.081 0-.031-.019-.058-.045-.071.012.016.02.034.02.055C11.671 12.155 11.631 12.194 11.582 12.194zM10.897 12.315c-.001 0-.002 0-.002 0 .011.007.022.009.035.009.045 0 .08-.035.08-.079 0-.032-.018-.06-.045-.072.013.016.02.033.02.055C10.985 12.276 10.945 12.315 10.897 12.315zM12.368 12.194C12.367 12.194 12.367 12.194 12.368 12.194c.009.005.021.009.034.009.045 0 .08-.036.08-.081 0-.031-.019-.058-.045-.071.012.016.02.034.02.055C12.457 12.155 12.417 12.194 12.368 12.194zM13.054 12.315C13.054 12.315 13.054 12.315 13.054 12.315c.01.007.021.009.034.009.045 0 .08-.035.08-.079 0-.032-.019-.06-.045-.072.013.016.02.033.02.055C13.143 12.276 13.104 12.315 13.054 12.315z"/><circle cx="11.582" cy="12.106" r=".072"/><circle cx="10.897" cy="12.227" r=".072"/><circle cx="12.368" cy="12.106" r=".072"/><circle cx="13.054" cy="12.227" r=".072"/><path d="M10.218 11.502L10.304 11.506 10.267 11.395zM10.417 11.566L10.442 11.451 10.346 11.52zM10.563 11.591L10.446 11.6 10.483 11.677zM10.483 11.806L10.597 11.772 10.491 11.72zM10.473 11.837L10.426 11.909 10.541 11.933zM10.305 11.978L10.388 12.062 10.384 11.943zM13.733 11.395L13.694 11.506 13.781 11.502zM13.653 11.52L13.558 11.451 13.582 11.566zM13.554 11.6L13.436 11.591 13.516 11.677zM13.509 11.72L13.402 11.772 13.516 11.806zM13.458 11.933L13.573 11.909 13.526 11.837zM13.615 11.943L13.611 12.062 13.694 11.978zM11.71 10.271L12 9.772 12.289 10.271 12.521 10.271 12.548 10.216 12.319 10.216 12.03 9.719 12.172 9.476 12.206 9.441 12.183 9.405 12.13 9.41 12.122 9.454 12 9.665 11.878 9.454 11.869 9.41 11.816 9.405 11.793 9.441 11.827 9.476 11.969 9.719 11.681 10.216 11.451 10.216 11.479 10.271z"/></g></svg>